<svg viewBox="0 0 13 15" fill="none" xmlns="http://www.w3.org/2000/svg">
    <circle cx="6" cy="6" r="5.9" fill="#219EFF" fill-opacity="0.45" stroke="#FFFCFC" stroke-width="0.2"/>
    <path d="M0.09 13.25H0.356C0.424 13.25 0.483667 13.2563 0.535 13.269C0.586333 13.281 0.632 13.3013 0.672 13.33C0.712667 13.358 0.743333 13.397 0.764 13.447C0.785333 13.497 0.796 13.5577 0.796 13.629C0.796 13.7003 0.785333 13.7607 0.764 13.81C0.742667 13.8593 0.711 13.8977 0.669 13.925C0.627 13.9517 0.579333 13.971 0.526 13.983C0.473333 13.9943 0.410667 14 0.338 14H0.09V13.963L0.189 13.94V13.311L0.09 13.287V13.25ZM0.294 13.958H0.343C0.458333 13.958 0.543333 13.9333 0.598 13.884C0.652667 13.8347 0.68 13.75 0.68 13.63C0.68 13.5093 0.654333 13.423 0.603 13.371C0.551667 13.3183 0.470667 13.292 0.36 13.292H0.294V13.958ZM0.898125 14V13.963L0.987125 13.941L1.29013 13.242H1.34113L1.62912 13.941L1.71313 13.963V14H1.42913V13.963L1.51613 13.942L1.43713 13.748H1.13512L1.06012 13.942L1.15012 13.963V14H0.898125ZM1.14913 13.71H1.42313L1.28313 13.359L1.14913 13.71ZM1.87316 13.25H2.13916C2.20716 13.25 2.26683 13.2563 2.31816 13.269C2.3695 13.281 2.41516 13.3013 2.45516 13.33C2.49583 13.358 2.5265 13.397 2.54716 13.447C2.5685 13.497 2.57916 13.5577 2.57916 13.629C2.57916 13.7003 2.5685 13.7607 2.54716 13.81C2.52583 13.8593 2.49416 13.8977 2.45216 13.925C2.41016 13.9517 2.3625 13.971 2.30916 13.983C2.2565 13.9943 2.19383 14 2.12116 14H1.87316V13.963L1.97216 13.94V13.311L1.87316 13.287V13.25ZM2.07716 13.958H2.12616C2.2415 13.958 2.3265 13.9333 2.38116 13.884C2.43583 13.8347 2.46316 13.75 2.46316 13.63C2.46316 13.5093 2.4375 13.423 2.38616 13.371C2.33483 13.3183 2.25383 13.292 2.14316 13.292H2.07716V13.958ZM2.74961 13.25H3.01561C3.08361 13.25 3.14328 13.2563 3.19461 13.269C3.24594 13.281 3.29161 13.3013 3.33161 13.33C3.37228 13.358 3.40294 13.397 3.42361 13.447C3.44494 13.497 3.45561 13.5577 3.45561 13.629C3.45561 13.7003 3.44494 13.7607 3.42361 13.81C3.40228 13.8593 3.37061 13.8977 3.32861 13.925C3.28661 13.9517 3.23894 13.971 3.18561 13.983C3.13294 13.9943 3.07028 14 2.99761 14H2.74961V13.963L2.84861 13.94V13.311L2.74961 13.287V13.25ZM2.95361 13.958H3.00261C3.11794 13.958 3.20294 13.9333 3.25761 13.884C3.31228 13.8347 3.33961 13.75 3.33961 13.63C3.33961 13.5093 3.31394 13.423 3.26261 13.371C3.21128 13.3183 3.13028 13.292 3.01961 13.292H2.95361V13.958ZM3.52699 13.25H3.83099V13.287L3.74299 13.308L3.93299 13.634L4.10799 13.311L4.02099 13.286V13.25H4.26599V13.286L4.17699 13.313L3.95499 13.679V13.94L4.05799 13.963V14H3.75399V13.963L3.84999 13.941V13.693L3.62299 13.312L3.52699 13.287V13.25ZM4.42282 13.458H4.37582L4.33782 13.205H4.45982L4.42282 13.458ZM4.7688 14.009C4.69146 14.009 4.61413 13.985 4.5368 13.937V13.772H4.5948L4.6378 13.934C4.6758 13.958 4.71846 13.97 4.7658 13.97C4.80113 13.97 4.83713 13.962 4.8738 13.946C4.89313 13.9373 4.90913 13.9247 4.9218 13.908C4.93446 13.8913 4.94146 13.8717 4.9428 13.849C4.9408 13.7957 4.91313 13.7513 4.8598 13.716C4.8398 13.7033 4.8128 13.6893 4.7788 13.674C4.7448 13.658 4.7228 13.6477 4.7128 13.643C4.59213 13.5937 4.5318 13.5263 4.5318 13.441C4.5318 13.3877 4.55246 13.341 4.5938 13.301C4.63513 13.261 4.69413 13.241 4.7708 13.241C4.81013 13.241 4.8508 13.2473 4.8928 13.26C4.9348 13.272 4.9698 13.2913 4.9978 13.318V13.464H4.9468L4.9008 13.312C4.86346 13.292 4.82346 13.282 4.7808 13.282C4.73813 13.282 4.70246 13.2923 4.6738 13.313C4.64513 13.333 4.6308 13.361 4.6308 13.397C4.6308 13.439 4.64846 13.4727 4.6838 13.498C4.7138 13.52 4.74546 13.5387 4.7788 13.554C4.81213 13.5687 4.8328 13.578 4.8408 13.582C4.97613 13.6393 5.0438 13.7133 5.0438 13.804C5.0438 13.8493 5.02846 13.888 4.9978 13.92C4.9418 13.9793 4.86546 14.009 4.7688 14.009ZM5.47656 13.25H5.77756C5.88356 13.25 5.95956 13.267 6.00556 13.301C6.05156 13.3343 6.07456 13.387 6.07456 13.459C6.07456 13.5463 6.0449 13.6053 5.98556 13.636C5.9329 13.6627 5.8609 13.676 5.76956 13.676H5.67856V13.94L5.78056 13.963V14H5.47656V13.963L5.57356 13.94V13.31L5.47656 13.287V13.25ZM5.67856 13.636H5.79056C5.84723 13.636 5.88923 13.622 5.91656 13.594C5.94456 13.566 5.95856 13.5223 5.95856 13.463C5.95856 13.4037 5.94456 13.36 5.91656 13.332C5.88923 13.304 5.84723 13.29 5.79056 13.29H5.67856V13.636ZM6.92134 14H6.71934L6.47234 13.666H6.41634V13.94L6.51834 13.963V14H6.21434V13.963L6.31134 13.94V13.31L6.21434 13.287V13.25H6.51534C6.62134 13.25 6.69734 13.266 6.74334 13.298C6.78934 13.33 6.81234 13.3813 6.81234 13.452C6.81234 13.5227 6.79167 13.5753 6.75034 13.61C6.709 13.644 6.65467 13.661 6.58734 13.661L6.81234 13.941L6.92134 13.963V14ZM6.41634 13.29V13.627H6.52834C6.585 13.627 6.627 13.6137 6.65434 13.587C6.68234 13.5603 6.69634 13.5177 6.69634 13.459C6.69634 13.3997 6.68267 13.3567 6.65534 13.33C6.628 13.3033 6.58567 13.29 6.52834 13.29H6.41634ZM7.62558 13.625C7.62558 13.5083 7.60458 13.4203 7.56258 13.361C7.52124 13.3017 7.46124 13.272 7.38258 13.272C7.30458 13.272 7.24524 13.3023 7.20458 13.363C7.16391 13.4237 7.14358 13.511 7.14358 13.625C7.14358 13.739 7.16324 13.8267 7.20258 13.888C7.24258 13.9487 7.30158 13.979 7.37958 13.979C7.45758 13.979 7.51791 13.949 7.56058 13.889C7.60391 13.829 7.62558 13.741 7.62558 13.625ZM7.02758 13.626C7.02758 13.5053 7.06091 13.4097 7.12758 13.339C7.19424 13.2677 7.27991 13.232 7.38458 13.232C7.48991 13.232 7.57524 13.2683 7.64058 13.341C7.70658 13.4137 7.73958 13.509 7.73958 13.627C7.73958 13.745 7.70691 13.84 7.64158 13.912C7.57624 13.9833 7.48991 14.019 7.38258 14.019C7.27524 14.019 7.18924 13.9837 7.12458 13.913C7.05991 13.8417 7.02758 13.746 7.02758 13.626ZM7.98852 14V13.963L8.08552 13.94V13.293H7.90252L7.86352 13.439H7.81152V13.25H8.46752V13.439H8.41552L8.37652 13.293H8.19052V13.941L8.29252 13.963V14H7.98852ZM8.60734 13.25H9.15834V13.429H9.10634L9.06734 13.293H8.81134V13.592H9.00434L9.03134 13.505H9.06834V13.712H9.03134L9.00434 13.636H8.81134V13.957H9.08534L9.12434 13.822H9.17734V14H8.60734V13.963L8.70634 13.94V13.311L8.60734 13.287V13.25ZM9.91554 13.759V13.928C9.85621 13.99 9.77354 14.021 9.66754 14.021C9.56154 14.021 9.47321 13.9857 9.40254 13.915C9.33254 13.8437 9.29754 13.7487 9.29754 13.63C9.29754 13.5107 9.33321 13.416 9.40454 13.346C9.47587 13.2753 9.56421 13.24 9.66954 13.24C9.77554 13.24 9.85754 13.2677 9.91554 13.323V13.485H9.86354L9.81454 13.326C9.77787 13.2933 9.72954 13.277 9.66954 13.277C9.59354 13.277 9.53187 13.3073 9.48454 13.368C9.43721 13.428 9.41354 13.5137 9.41354 13.625C9.41354 13.7357 9.43621 13.8227 9.48154 13.886C9.52754 13.9493 9.58887 13.981 9.66554 13.981C9.72754 13.981 9.77854 13.9623 9.81854 13.925L9.86854 13.759H9.91554ZM10.2224 14V13.963L10.3194 13.94V13.293H10.1364L10.0974 13.439H10.0454V13.25H10.7014V13.439H10.6494L10.6104 13.293H10.4244V13.941L10.5264 13.963V14H10.2224ZM10.8412 13.25H11.1452V13.287L11.0452 13.31V13.941L11.1452 13.963V14H10.8412V13.963L10.9402 13.94V13.311L10.8412 13.287V13.25ZM11.9135 13.625C11.9135 13.5083 11.8925 13.4203 11.8505 13.361C11.8092 13.3017 11.7492 13.272 11.6705 13.272C11.5925 13.272 11.5332 13.3023 11.4925 13.363C11.4519 13.4237 11.4315 13.511 11.4315 13.625C11.4315 13.739 11.4512 13.8267 11.4905 13.888C11.5305 13.9487 11.5895 13.979 11.6675 13.979C11.7455 13.979 11.8059 13.949 11.8485 13.889C11.8919 13.829 11.9135 13.741 11.9135 13.625ZM11.3155 13.626C11.3155 13.5053 11.3489 13.4097 11.4155 13.339C11.4822 13.2677 11.5679 13.232 11.6725 13.232C11.7779 13.232 11.8632 13.2683 11.9285 13.341C11.9945 13.4137 12.0275 13.509 12.0275 13.627C12.0275 13.745 11.9949 13.84 11.9295 13.912C11.8642 13.9833 11.7779 14.019 11.6705 14.019C11.5632 14.019 11.4772 13.9837 11.4125 13.913C11.3479 13.8417 11.3155 13.746 11.3155 13.626ZM12.7306 13.25H12.9766V13.287L12.8786 13.312V14H12.8086L12.3406 13.314V13.941L12.4386 13.963V14H12.1976V13.963L12.2906 13.941V13.313L12.1976 13.287V13.25H12.4206L12.8286 13.842V13.313L12.7306 13.287V13.25Z" fill="black"/>
    <path d="M3.72 3H5.848C6.392 3 6.86933 3.05067 7.28 3.152C7.69067 3.248 8.056 3.41067 8.376 3.64C8.70133 3.864 8.94667 4.176 9.112 4.576C9.28267 4.976 9.368 5.46133 9.368 6.032C9.368 6.60267 9.28267 7.08533 9.112 7.48C8.94133 7.87467 8.688 8.18133 8.352 8.4C8.016 8.61333 7.63467 8.768 7.208 8.864C6.78667 8.95467 6.28533 9 5.704 9H3.72V8.704L4.512 8.52V3.488L3.72 3.296V3ZM5.352 8.664H5.744C6.66667 8.664 7.34667 8.46667 7.784 8.072C8.22133 7.67733 8.44 7 8.44 6.04C8.44 5.07467 8.23467 4.384 7.824 3.968C7.41333 3.54667 6.76533 3.336 5.88 3.336H5.352V8.664Z" fill="#FEF6F6"/>
    <path d="M3.72 3H6.128C6.976 3 7.584 3.136 7.952 3.408C8.32 3.67467 8.504 4.096 8.504 4.672C8.504 5.37067 8.26667 5.84267 7.792 6.088C7.37067 6.30133 6.79467 6.408 6.064 6.408H5.336V8.52L6.152 8.704V9H3.72V8.704L4.496 8.52V3.48L3.72 3.296V3ZM5.336 6.088H6.232C6.68533 6.088 7.02133 5.976 7.24 5.752C7.464 5.528 7.576 5.17867 7.576 4.704C7.576 4.22933 7.464 3.88 7.24 3.656C7.02133 3.432 6.68533 3.32 6.232 3.32H5.336V6.088Z" fill="#FFFFFD"/>
</svg>
